<svg width="64" height="64" viewBox="0 0 64 64" fill="none" xmlns="http://www.w3.org/2000/svg">
<path fill-rule="evenodd" clip-rule="evenodd" d="M13 0C5.8203 0 0 5.8203 0 13V51C0 58.1797 5.8203 64 13 64H51C58.1797 64 64 58.1797 64 51V13C64 5.8203 58.1797 0 51 0H13ZM15.7982 20.4637C15.7982 17.8873 17.8868 15.7987 20.4632 15.7987C22.4725 15.7987 24.2561 17.0853 24.89 18.992L34.1048 46.7103C35.4594 50.785 39.2709 53.5345 43.5649 53.5345C49.0707 53.5345 53.534 49.0712 53.534 43.5654V18.6503C53.534 14.1299 49.8695 10.4653 45.349 10.4653C40.8286 10.4653 37.164 14.1299 37.164 18.6503V25.677C37.164 27.1498 38.3579 28.3437 39.8307 28.3437C41.3035 28.3437 42.4974 27.1498 42.4974 25.677V18.6503C42.4974 17.0754 43.7741 15.7987 45.349 15.7987C46.924 15.7987 48.2007 17.0754 48.2007 18.6503V43.5654C48.2007 46.1257 46.1252 48.2012 43.5649 48.2012C41.5681 48.2012 39.7957 46.9226 39.1658 45.0278L29.951 17.3095C28.5924 13.2229 24.7697 10.4653 20.4632 10.4653C14.9413 10.4653 10.4648 14.9417 10.4648 20.4637V45.3244C10.4648 49.8587 14.1406 53.5345 18.675 53.5345C23.2093 53.5345 26.8851 49.8587 26.8851 45.3244V38.2724C26.8851 36.7997 25.6912 35.6058 24.2185 35.6058C22.7457 35.6058 21.5518 36.7997 21.5518 38.2724V45.3244C21.5518 46.9132 20.2638 48.2012 18.675 48.2012C17.0862 48.2012 15.7982 46.9132 15.7982 45.3244V20.4637Z" fill="#3F3F46" fill-opacity="0.5"/>
</svg>
