<svg width="32" height="32" viewBox="0 0 32 32" fill="none" xmlns="http://www.w3.org/2000/svg">
<path fill-rule="evenodd" clip-rule="evenodd" d="M6 0C2.68629 0 0 2.68629 0 6V26C0 29.3137 2.68629 32 6 32H26C29.3137 32 32 29.3137 32 26V6C32 2.68629 29.3137 0 26 0H6ZM7.89909 10.2319C7.89909 8.94371 8.94339 7.89941 10.2316 7.89941C11.2363 7.89941 12.1281 8.54272 12.445 9.49609L17.0524 23.3552C17.7297 25.3926 19.6355 26.7673 21.7824 26.7673C24.5353 26.7673 26.767 24.5357 26.767 21.7828V9.32525C26.767 7.06503 24.9347 5.23275 22.6745 5.23275C20.4143 5.23275 18.582 7.06502 18.582 9.32525V12.8386C18.582 13.575 19.179 14.1719 19.9153 14.1719C20.6517 14.1719 21.2487 13.575 21.2487 12.8386V9.32525C21.2487 8.53778 21.887 7.89941 22.6745 7.89941C23.462 7.89941 24.1003 8.53778 24.1003 9.32525V21.7828C24.1003 23.0629 23.0626 24.1007 21.7824 24.1007C20.7841 24.1007 19.8979 23.4614 19.5829 22.514L14.9755 8.65484C14.2962 6.61153 12.3849 5.23275 10.2316 5.23275C7.47063 5.23275 5.23242 7.47096 5.23242 10.2319V22.6623C5.23242 24.9294 7.07032 26.7673 9.33749 26.7673C11.6047 26.7673 13.4426 24.9294 13.4426 22.6623V19.1363C13.4426 18.3999 12.8456 17.803 12.1092 17.803C11.3728 17.803 10.7759 18.3999 10.7759 19.1363V22.6623C10.7759 23.4567 10.1319 24.1007 9.33749 24.1007C8.54308 24.1007 7.89909 23.4567 7.89909 22.6623V10.2319Z" fill="#3F3F46"/>
</svg>
