<svg width="64" height="64" viewBox="0 0 64 64" fill="none" xmlns="http://www.w3.org/2000/svg">
<path fill-rule="evenodd" clip-rule="evenodd" d="M16 0C7.16406 0 0 7.16406 0 16V48C0 56.8359 7.16406 64 16 64H48C56.8359 64 64 56.8359 64 48V16C64 7.16406 56.8359 0 48 0H16ZM14 19.7715C14 16.584 16.5859 14 19.7734 14C22.2578 14 24.4648 15.5918 25.25 17.9512L35.0156 47.332C36.3398 51.3145 40.0625 54 44.2578 54C49.6406 54 54 49.6387 54 44.2598V17.8496C54 15.3789 52.8594 13.1758 51.0742 11.7363C49.7266 10.6504 48.0156 10 46.1523 10C41.8164 10 38.3008 13.5137 38.3008 17.8496V25.2969C38.3008 26.4023 39.1953 27.2969 40.3008 27.2969C41.4062 27.2969 42.3008 26.4023 42.3008 25.2969V17.8496C42.3008 15.7227 44.0234 14 46.1523 14C48.2773 14 50 15.7227 50 17.8496V44.2598C50 47.4297 47.4297 50 44.2578 50C41.7852 50 39.5938 48.416 38.8125 46.0703L29.043 16.6895C27.7148 12.6953 23.9805 10 19.7734 10C14.375 10 10 14.375 10 19.7715V46.123C10 50.4746 13.5273 54 17.875 54C22.2266 54 25.7539 50.4746 25.7539 46.123V38.6484C25.7539 37.5449 24.8555 36.6484 23.7539 36.6484C22.6484 36.6484 21.7539 37.5449 21.7539 38.6484V46.123C21.7539 48.2637 20.0156 50 17.875 50C15.7344 50 14 48.2637 14 46.123V19.7715Z" fill="#252525"/>
</svg>
