<svg width="24" height="24" viewBox="0 0 24 24" fill="none" xmlns="http://www.w3.org/2000/svg">
<path fill-rule="evenodd" clip-rule="evenodd" d="M5.11291 1.47184C3.102 1.47184 1.47184 3.102 1.47184 5.11291V19.9546C1.47184 21.376 2.62404 22.5282 4.04535 22.5282C5.46667 22.5282 6.61887 21.376 6.61887 19.9546V15.7447C6.61887 15.3382 6.94835 15.0087 7.35479 15.0087C7.76122 15.0087 8.09071 15.3382 8.09071 15.7447V19.9546C8.09071 22.1888 6.27954 24 4.04535 24C1.81117 24 0 22.1888 0 19.9546V5.11291C0 2.28913 2.28913 0 5.11291 0C7.31516 0 9.26998 1.41014 9.96473 3.49994L15.4659 20.0477C15.9583 21.5288 17.3437 22.5282 18.9045 22.5282C20.9058 22.5282 22.5282 20.9058 22.5282 18.9045V4.03034C22.5282 2.61732 21.3827 1.47184 19.9697 1.47184C18.5566 1.47184 17.4112 2.61732 17.4112 4.03034V8.22526C17.4112 8.63169 17.0817 8.96118 16.6752 8.96118C16.2688 8.96118 15.9393 8.63169 15.9393 8.22526V4.03034C15.9393 1.80445 17.7438 0 19.9697 0C22.1956 0 24 1.80445 24 4.03034V18.9045C24 21.7187 21.7187 24 18.9045 24C16.7098 24 14.7616 22.5947 14.0693 20.512L8.56805 3.96426C8.0733 2.47605 6.68121 1.47184 5.11291 1.47184Z" fill="white"/>
</svg>
