<svg width="22" height="22" viewBox="0 0 22 22" fill="none" xmlns="http://www.w3.org/2000/svg">
<path fill-rule="evenodd" clip-rule="evenodd" d="M11.0744 2.29987C11.2518 2.61464 11.2278 3.00425 11.013 3.29481C10.23 4.35416 9.85316 5.65937 9.95113 6.97306C10.0491 8.28675 10.6153 9.52164 11.5468 10.4531C12.4783 11.3846 13.7132 11.9509 15.0269 12.0488C16.3406 12.1468 17.6458 11.77 18.7051 10.987C18.9957 10.7722 19.3853 10.7481 19.7001 10.9255C20.0148 11.1029 20.196 11.4487 20.1628 11.8085C20.0026 13.5422 19.3519 15.1944 18.2869 16.5718C17.222 17.9493 15.7867 18.9949 14.1492 19.5864C12.5116 20.1779 10.7394 20.2908 9.04006 19.9119C7.34068 19.533 5.78436 18.6779 4.5532 17.4467C3.32205 16.2156 2.46699 14.6593 2.08806 12.9599C1.70914 11.2605 1.82204 9.48835 2.41354 7.85079C3.00503 6.21323 4.05067 4.77799 5.4281 3.71302C6.80552 2.64804 8.45777 1.99738 10.1915 1.83716C10.5513 1.80391 10.897 1.98511 11.0744 2.29987ZM8.54003 4.06907C7.82722 4.32698 7.15514 4.69512 6.54948 5.1634C5.44754 6.01538 4.61103 7.16357 4.13783 8.47362C3.66463 9.78367 3.57432 11.2014 3.87746 12.5609C4.18059 13.9204 4.86464 15.1655 5.84957 16.1504C6.83449 17.1353 8.07954 17.8194 9.43905 18.1225C10.7986 18.4256 12.2163 18.3353 13.5263 17.8621C14.8364 17.3889 15.9846 16.5524 16.8365 15.4505C17.3048 14.8448 17.673 14.1727 17.9309 13.4599C16.9655 13.8092 15.93 13.9546 14.8905 13.8771C13.139 13.7465 11.4924 12.9915 10.2504 11.7495C9.00845 10.5075 8.25349 8.86098 8.12287 7.1094C8.04535 6.06993 8.19078 5.03443 8.54003 4.06907Z" fill="white"/>
</svg>
