<svg width="22" height="22" viewBox="0 0 22 22" fill="none" xmlns="http://www.w3.org/2000/svg">
<g clip-path="url(#clip0_128_116)">
<path d="M11 0C11.5063 0 11.9167 0.410406 11.9167 0.916667V2.75C11.9167 3.25626 11.5063 3.66667 11 3.66667C10.4937 3.66667 10.0833 3.25626 10.0833 2.75V0.916667C10.0833 0.410406 10.4937 0 11 0Z" fill="white"/>
<path fill-rule="evenodd" clip-rule="evenodd" d="M5.5 11C5.5 7.96243 7.96243 5.5 11 5.5C14.0376 5.5 16.5 7.96243 16.5 11C16.5 14.0376 14.0376 16.5 11 16.5C7.96243 16.5 5.5 14.0376 5.5 11ZM11 7.33333C8.97496 7.33333 7.33333 8.97496 7.33333 11C7.33333 13.025 8.97496 14.6667 11 14.6667C13.025 14.6667 14.6667 13.025 14.6667 11C14.6667 8.97496 13.025 7.33333 11 7.33333Z" fill="white"/>
<path d="M11.9167 19.25C11.9167 18.7437 11.5063 18.3333 11 18.3333C10.4937 18.3333 10.0833 18.7437 10.0833 19.25V21.0833C10.0833 21.5896 10.4937 22 11 22C11.5063 22 11.9167 21.5896 11.9167 21.0833V19.25Z" fill="white"/>
<path d="M3.22015 3.22013C3.57813 2.86214 4.15854 2.86214 4.51652 3.22013L5.81818 4.52179C6.17616 4.87977 6.17616 5.46017 5.81818 5.81815C5.4602 6.17614 4.8798 6.17614 4.52182 5.81815L3.22015 4.51649C2.86217 4.15851 2.86217 3.57811 3.22015 3.22013Z" fill="white"/>
<path d="M17.4782 16.1819C17.1202 15.8239 16.5398 15.8239 16.1818 16.1819C15.8238 16.5399 15.8238 17.1203 16.1818 17.4783L17.4835 18.7799C17.8415 19.1379 18.4219 19.1379 18.7798 18.7799C19.1378 18.422 19.1378 17.8416 18.7798 17.4836L17.4782 16.1819Z" fill="white"/>
<path d="M0 11C0 10.4937 0.410406 10.0833 0.916667 10.0833H2.75C3.25626 10.0833 3.66667 10.4937 3.66667 11C3.66667 11.5063 3.25626 11.9167 2.75 11.9167H0.916667C0.410406 11.9167 0 11.5063 0 11Z" fill="white"/>
<path d="M19.25 10.0833C18.7437 10.0833 18.3333 10.4937 18.3333 11C18.3333 11.5063 18.7437 11.9167 19.25 11.9167H21.0833C21.5896 11.9167 22 11.5063 22 11C22 10.4937 21.5896 10.0833 21.0833 10.0833H19.25Z" fill="white"/>
<path d="M5.81818 16.1819C6.17616 16.5399 6.17616 17.1203 5.81818 17.4783L4.51652 18.7799C4.15854 19.1379 3.57813 19.1379 3.22015 18.7799C2.86217 18.422 2.86217 17.8416 3.22015 17.4836L4.52182 16.1819C4.8798 15.8239 5.4602 15.8239 5.81818 16.1819Z" fill="white"/>
<path d="M18.7798 4.51649C19.1378 4.15851 19.1378 3.57811 18.7798 3.22013C18.4219 2.86214 17.8415 2.86214 17.4835 3.22013L16.1818 4.52179C15.8238 4.87977 15.8238 5.46017 16.1818 5.81815C16.5398 6.17614 17.1202 6.17614 17.4782 5.81815L18.7798 4.51649Z" fill="white"/>
</g>
<defs>
<clipPath id="clip0_128_116">
<rect width="22" height="22" fill="white"/>
</clipPath>
</defs>
</svg>
